<svg width="616" height="65" viewBox="0 0 616 65" fill="none" xmlns="http://www.w3.org/2000/svg">
<g clip-path="url(#clip0_1_8)">
<path d="M47.2657 0.027832H32.8554C32.3025 0.027832 31.8471 0.468083 31.8471 1.00268V23.8014H16.4283V1.00268C16.4283 0.468083 15.9729 0.027832 15.4199 0.027832H1.00962C0.456626 0.027832 0.0012207 0.468083 0.0012207 1.00268V62.8267C0.0012207 63.3613 0.456626 63.8013 1.00962 63.8013H15.3874C15.9404 63.8013 16.3958 63.3613 16.3958 62.8267V38.0152H31.8145V62.8267C31.8145 63.3613 32.27 63.8013 32.823 63.8013H47.2657C47.8189 63.8013 48.2743 63.3613 48.2743 62.8267V1.00268C48.2743 0.468083 47.8189 0.027832 47.2657 0.027832Z" fill="white"/>
<path d="M82.1538 13.6826C77.8921 13.6826 73.7287 14.3115 69.825 15.538C65.9542 16.7644 62.2784 18.3053 58.8956 20.1606C58.4076 20.4121 58.245 21.0097 58.5051 21.4814L63.6122 30.5694C63.8723 31.0411 64.4903 31.2298 64.9783 30.9782C67.6456 29.6889 70.2155 28.6197 72.5575 27.865C74.8347 27.1103 77.1115 26.7329 79.3234 26.7329C82.4139 26.7329 84.7233 27.2675 86.2198 28.3367C87.3906 29.1858 88.1391 30.2549 88.4966 31.6386C83.1946 31.9845 78.5754 32.5505 74.7695 33.3367C70.6383 34.2172 67.1903 35.3807 64.5229 36.7958C61.7904 38.2738 59.7737 40.0977 58.5051 42.2359C57.2364 44.3744 56.6184 46.8903 56.6184 49.689C56.6184 51.8271 57.0412 53.8397 57.8218 55.6637C58.6351 57.4878 59.7737 59.0913 61.2376 60.4749C62.7015 61.8586 64.4903 62.9592 66.6049 63.714C68.6868 64.4688 71.0288 64.8775 73.6309 64.8775C76.884 64.8775 80.1045 64.2173 83.162 62.9592C85.7971 61.8586 88.2691 60.5066 90.5459 58.934L91.3592 62.9592C91.457 63.4312 91.8798 63.7457 92.3677 63.7457H104.143C104.696 63.7457 105.152 63.3053 105.152 62.7707V35.8524C105.152 28.3996 103.07 22.7707 98.9384 19.0914C94.8076 15.5065 89.1798 13.6826 82.1538 13.6826ZM88.6919 48.2111C87.1631 49.3116 85.5692 50.2236 83.8778 50.978C82.1212 51.7645 80.2346 52.1732 78.2175 52.1732C76.3308 52.1732 74.8347 51.8588 73.7935 51.2299C72.8828 50.6953 72.4601 49.8775 72.4601 48.714C72.4601 47.8966 72.6876 47.1101 73.1433 46.387C73.5987 45.6639 74.4442 45.0033 75.6154 44.4374C76.9166 43.8085 78.7054 43.2739 80.95 42.8648C83.0319 42.4878 85.6018 42.1734 88.6593 41.9845L88.6919 48.2111Z" fill="white"/>
<path d="M157.159 47.6998C156.996 47.4796 156.768 47.3224 156.475 47.2594C156.215 47.1968 155.923 47.2594 155.695 47.4166C154.068 48.5805 152.182 49.5868 150.1 50.4359C148.083 51.2532 145.838 51.6936 143.432 51.6936C139.626 51.6936 136.633 50.5931 134.291 48.3916C131.949 46.1589 130.81 43.203 130.81 39.335C130.81 35.4671 131.981 32.5111 134.421 30.2785C136.828 28.0772 140.016 26.9451 143.92 26.9451C147.27 26.9451 150.718 28.1401 154.101 30.4671C154.556 30.7816 155.174 30.6872 155.5 30.247L162.168 21.6307C162.493 21.2218 162.429 20.6558 162.038 20.3099C159.859 18.4231 157.126 16.8193 153.938 15.5615C147.628 13.1086 139.203 13.0772 132.111 15.4042C128.598 16.5363 125.475 18.203 122.808 20.3728C120.141 22.5426 117.961 25.247 116.367 28.4231C114.773 31.5992 113.96 35.2784 113.96 39.335C113.96 43.3602 114.676 47.0396 116.107 50.2157C117.538 53.3917 119.555 56.1274 122.092 58.2972C124.629 60.467 127.623 62.1338 131.005 63.2656C134.356 64.3979 138.064 64.9955 142.032 64.9955C145.448 64.9955 149.026 64.4296 152.702 63.2973C156.378 62.1651 159.761 60.3098 162.819 57.8572C163.209 57.5424 163.307 56.9765 163.014 56.5678L157.159 47.6998Z" fill="white"/>
<path d="M203.444 35.2133L221.335 16.4712C221.595 16.1881 221.693 15.7794 221.53 15.402C221.368 15.0561 221.01 14.8045 220.587 14.8045H204.81C204.517 14.8045 204.257 14.9303 204.062 15.1189L187.602 32.163V0.968006C187.602 0.433417 187.147 -0.00683594 186.594 -0.00683594H172.184C171.631 -0.00683594 171.175 0.433417 171.175 0.968006V62.7921C171.175 63.3263 171.631 63.7667 172.184 63.7667H186.594C187.147 63.7667 187.602 63.3263 187.602 62.7921V51.5341L193.653 45.8421L205.623 63.3263C205.819 63.6095 206.144 63.7667 206.469 63.7667H222.05C222.441 63.7667 222.766 63.5465 222.962 63.2321C223.124 62.9176 223.124 62.509 222.896 62.2258L203.444 35.2133Z" fill="white"/>
<path d="M267.876 20.4333C265.892 18.295 263.355 16.6283 260.362 15.4333C257.369 14.2383 253.921 13.6409 250.083 13.6409C246.7 13.6409 243.382 14.2383 240.26 15.4018C237.104 16.5654 234.274 18.295 231.834 20.4962C229.395 22.6974 227.41 25.4018 225.947 28.5465C224.483 31.6912 223.735 35.3075 223.735 39.2698C223.735 43.3265 224.483 46.9429 225.947 50.0873C227.41 53.2321 229.427 55.9365 231.932 58.1375C234.437 60.339 237.43 62.0371 240.812 63.1693C244.163 64.3011 247.839 64.8987 251.742 64.8987C255.093 64.8987 258.573 64.3954 262.021 63.3891C265.502 62.3828 268.69 60.9995 271.487 59.2385C271.942 58.9553 272.072 58.3894 271.845 57.949L267.161 49.6473C266.901 49.1756 266.282 48.9867 265.795 49.2382C263.713 50.2762 261.663 51.0623 259.744 51.5969C257.857 52.0998 255.808 52.3517 253.694 52.3517C250.311 52.3517 247.416 51.5969 245.041 50.0873C242.992 48.7982 241.626 46.817 240.845 44.0813H272.333C272.821 44.0813 273.211 43.7668 273.341 43.2948C273.472 42.6976 273.602 41.8798 273.764 40.7793C273.894 39.7101 273.959 38.4836 273.959 37.1943C273.959 33.8924 273.439 30.7478 272.43 27.9176C271.39 25.0874 269.861 22.5402 267.876 20.4333ZM240.65 33.4836C241.268 31.188 242.374 29.427 243.968 28.295C245.854 26.9428 247.969 26.2509 250.376 26.2509C253.369 26.2509 255.548 27.0056 256.849 28.4522C257.987 29.7729 258.671 31.4396 258.833 33.4522H240.65V33.4836Z" fill="white"/>
<path d="M328.953 15.6637C327.456 15.0034 325.992 14.5002 324.593 14.1858C323.195 13.8398 321.341 13.6826 319.096 13.6826C315.03 13.6826 311.159 14.6575 307.614 16.6071C304.686 18.2109 302.084 20.5694 299.839 23.5883L298.928 15.6952C298.863 15.192 298.44 14.8147 297.92 14.8147H286.145C285.591 14.8147 285.136 15.2549 285.136 15.7895V62.8019C285.136 63.3366 285.591 63.777 286.145 63.777H300.555C301.108 63.777 301.563 63.3366 301.563 62.8019V38.5568C303.548 34.626 305.89 31.8272 308.557 30.2549C311.289 28.6511 314.087 27.8336 316.917 27.8336C318.673 27.8336 320.137 27.9279 321.275 28.148C322.447 28.3682 323.781 28.6826 325.244 29.1228C325.505 29.2172 325.797 29.1543 326.057 29.0285C326.285 28.9027 326.48 28.6826 326.545 28.3996L329.473 16.7329C329.636 16.3241 329.408 15.8524 328.953 15.6637Z" fill="white"/>
<path d="M374.698 38.5152C377.789 37.0057 380.359 34.8359 382.343 32.0372C384.555 28.9554 385.661 24.9932 385.661 20.2447C385.661 16.4397 384.977 13.2007 383.579 10.5906C382.18 7.98057 380.293 5.87367 377.886 4.30132C375.544 2.76046 372.779 1.62839 369.689 0.968005C366.664 0.339076 363.378 -0.00683594 359.898 -0.00683594H337.258C336.704 -0.00683594 336.249 0.433417 336.249 0.968005V62.7921C336.249 63.3263 336.704 63.7667 337.258 63.7667H351.668C352.221 63.7667 352.676 63.3263 352.676 62.7921V41.5026H358.597L370.567 63.2637C370.73 63.5782 371.088 63.7984 371.478 63.7984H387.645C388.003 63.7984 388.328 63.6095 388.523 63.295C388.719 62.9806 388.719 62.6032 388.523 62.32L374.698 38.5152ZM358.759 28.4523H352.709V13.0749H358.759C362.402 13.0749 365.168 13.641 366.924 14.7101C368.583 15.7164 369.396 17.5403 369.396 20.2133C369.396 25.8422 366.013 28.4523 358.759 28.4523Z" fill="white"/>
<path d="M417.048 13.6826C412.784 13.6826 408.621 14.3115 404.715 15.538C400.846 16.7644 397.17 18.3053 393.787 20.1606C393.3 20.4121 393.137 21.0097 393.397 21.4814L398.504 30.5694C398.764 31.0411 399.382 31.2298 399.87 30.9782C402.538 29.6889 405.106 28.6197 407.449 27.865C409.728 27.1103 412.003 26.7329 414.217 26.7329C417.305 26.7329 419.616 27.2675 421.11 28.3367C422.282 29.1858 423.03 30.2549 423.389 31.6386C418.086 31.9845 413.468 32.5505 409.664 33.3367C405.529 34.2172 402.082 35.3807 399.415 36.7958C396.682 38.2738 394.666 40.0977 393.397 42.2359C392.129 44.3744 391.51 46.8903 391.51 49.689C391.51 51.8271 391.933 53.8397 392.714 55.6637C393.527 57.4878 394.666 59.0913 396.13 60.4749C397.593 61.8586 399.382 62.9592 401.497 63.714C403.58 64.4688 405.919 64.8775 408.524 64.8775C411.777 64.8775 414.998 64.2173 418.054 62.9592C420.687 61.8586 423.159 60.5066 425.438 58.934L426.251 62.9592C426.348 63.4312 426.771 63.7457 427.258 63.7457H439.034C439.59 63.7457 440.045 63.3053 440.045 62.7707V35.8524C440.045 28.3996 437.963 22.7707 433.832 19.0914C429.734 15.5065 424.105 13.6826 417.048 13.6826ZM423.586 48.2111C422.056 49.3116 420.462 50.2236 418.771 50.978C417.011 51.7645 415.127 52.1732 413.11 52.1732C411.222 52.1732 409.728 51.8588 408.685 51.2299C407.775 50.6953 407.353 49.8775 407.353 48.714C407.353 47.8966 407.578 47.1101 408.037 46.387C408.492 45.6639 409.337 45.0033 410.509 44.4374C411.809 43.8085 413.597 43.2739 415.844 42.8648C417.925 42.4878 420.494 42.1734 423.55 41.9845V48.2111H423.586Z" fill="white"/>
<path d="M481.648 13.6826C477.839 13.6826 474.457 14.4688 471.594 15.9782C469.251 17.2361 467.137 18.7141 465.221 20.3807L464.408 15.6637C464.307 15.192 463.884 14.8461 463.397 14.8461H451.621C451.069 14.8461 450.614 15.2864 450.614 15.821V62.8336C450.614 63.3683 451.069 63.8082 451.621 63.8082H466.034C466.586 63.8082 467.041 63.3683 467.041 62.8336V31.8587C468.571 30.4122 469.968 29.343 471.3 28.5883C472.605 27.865 474.163 27.4876 475.955 27.4876C478.262 27.4876 479.856 28.0851 480.701 29.2487C481.615 30.538 482.102 32.6763 482.102 35.6009V62.8019C482.102 63.3366 482.557 63.7769 483.109 63.7769H497.519C498.074 63.7769 498.529 63.3366 498.529 62.8019V33.8084C498.529 27.6763 497.164 22.7707 494.495 19.1858C491.83 15.538 487.469 13.6826 481.648 13.6826Z" fill="white"/>
<path d="M560.968 62.2575L541.514 35.2133L559.406 16.4711C559.668 16.1881 559.765 15.7793 559.6 15.402C559.439 15.0561 559.08 14.8045 558.658 14.8045H542.883C542.589 14.8045 542.327 14.9303 542.134 15.1189L525.671 32.163V0.968005C525.671 0.433417 525.216 -0.00683594 524.665 -0.00683594H510.255C509.7 -0.00683594 509.245 0.433417 509.245 0.968005V62.7921C509.245 63.3263 509.7 63.7667 510.255 63.7667H524.665C525.216 63.7667 525.671 63.3263 525.671 62.7921V51.5341L531.723 45.8421L543.66 63.358C543.857 63.6412 544.184 63.7984 544.506 63.7984H560.091C560.477 63.7984 560.803 63.5782 561.001 63.2637C561.194 62.9493 561.162 62.5402 560.968 62.2575Z" fill="white"/>
<path d="M614.982 63.8081C615.537 63.8081 615.992 63.3682 615.992 62.8336V1.00951C615.992 0.474919 615.537 0.034668 614.982 0.034668H568.693C568.141 0.034668 567.687 0.474919 567.687 1.00951V62.8336C567.687 63.3682 568.141 63.8081 568.693 63.8081H614.982Z" fill="#05C770"/>
</g>
<defs>
<clipPath id="clip0_1_8">
<rect width="616" height="65" fill="white"/>
</clipPath>
</defs>
</svg>
